<mxfile host="app.diagrams.net" modified="2022-04-11T22:18:22.263Z" agent="5.0 (Windows NT 10.0; Win64; x64) AppleWebKit/537.36 (KHTML, like Gecko) Chrome/99.0.4844.84 Safari/537.36" etag="5GJHzbpLx7Cg7Fyg3wAE" version="17.4.2" type="github" pages="3">
  <diagram id="-ZXCLa0k-xv4Mn8sI_rg" name="Generalized State Diagram">
    <mxGraphModel dx="400" dy="204" grid="1" gridSize="10" guides="1" tooltips="1" connect="1" arrows="1" fold="1" page="1" pageScale="1" pageWidth="850" pageHeight="1100" math="0" shadow="0">
      <root>
        <mxCell id="0" />
        <mxCell id="1" parent="0" />
        <mxCell id="i2ksJJbB7Hy_UAuFXtkF-57" value="General Operation States" style="shape=umlFrame;whiteSpace=wrap;html=1;width=100;height=60;" vertex="1" parent="1">
          <mxGeometry x="50" y="40" width="740" height="360" as="geometry" />
        </mxCell>
        <mxCell id="i2ksJJbB7Hy_UAuFXtkF-1" value="BagItem(softblock)" style="swimlane;childLayout=stackLayout;horizontal=1;startSize=30;horizontalStack=0;rounded=1;fontSize=14;fontStyle=0;strokeWidth=2;resizeParent=0;resizeLast=1;shadow=0;dashed=0;align=center;" vertex="1" parent="1">
          <mxGeometry x="584" y="172" width="160" height="80" as="geometry">
            <mxRectangle x="584" y="172" width="150" height="30" as="alternateBounds" />
          </mxGeometry>
        </mxCell>
        <mxCell id="i2ksJJbB7Hy_UAuFXtkF-2" value="entry/block()&#xa;entry/wait 5 seconds&#xa;exit/checkWeight" style="align=center;strokeColor=none;fillColor=none;spacingLeft=4;fontSize=12;verticalAlign=top;resizable=0;rotatable=0;part=1;" vertex="1" parent="i2ksJJbB7Hy_UAuFXtkF-1">
          <mxGeometry y="30" width="160" height="50" as="geometry" />
        </mxCell>
        <mxCell id="i2ksJJbB7Hy_UAuFXtkF-6" value="BagItem(hardblock):" style="swimlane;childLayout=stackLayout;horizontal=1;startSize=30;horizontalStack=0;rounded=1;fontSize=14;fontStyle=0;strokeWidth=2;resizeParent=0;resizeLast=1;shadow=0;dashed=0;align=center;" vertex="1" parent="1">
          <mxGeometry x="580" y="280" width="190" height="85" as="geometry" />
        </mxCell>
        <mxCell id="i2ksJJbB7Hy_UAuFXtkF-7" value="entry/notifyWeightDiscrepency()&#xa;do/Attendant resolves Discrepecny&#xa;Â " style="align=center;strokeColor=none;fillColor=none;spacingLeft=4;fontSize=12;verticalAlign=top;resizable=0;rotatable=0;part=1;" vertex="1" parent="i2ksJJbB7Hy_UAuFXtkF-6">
          <mxGeometry y="30" width="190" height="55" as="geometry" />
        </mxCell>
        <mxCell id="i2ksJJbB7Hy_UAuFXtkF-10" value="[WeightDiscrepency==true]" style="text;html=1;strokeColor=none;fillColor=none;align=center;verticalAlign=middle;whiteSpace=wrap;rounded=0;" vertex="1" parent="1">
          <mxGeometry x="590" y="250" width="110" height="30" as="geometry" />
        </mxCell>
        <mxCell id="i2ksJJbB7Hy_UAuFXtkF-12" style="edgeStyle=orthogonalEdgeStyle;rounded=0;orthogonalLoop=1;jettySize=auto;html=1;entryX=0.75;entryY=0;entryDx=0;entryDy=0;exitX=0.75;exitY=1;exitDx=0;exitDy=0;" edge="1" parent="1" source="i2ksJJbB7Hy_UAuFXtkF-2" target="i2ksJJbB7Hy_UAuFXtkF-6">
          <mxGeometry relative="1" as="geometry" />
        </mxCell>
        <mxCell id="i2ksJJbB7Hy_UAuFXtkF-13" value="Standby" style="swimlane;childLayout=stackLayout;horizontal=1;startSize=30;horizontalStack=0;rounded=1;fontSize=14;fontStyle=0;strokeWidth=2;resizeParent=0;resizeLast=1;shadow=0;dashed=0;align=center;" vertex="1" parent="1">
          <mxGeometry x="280" y="175" width="110" height="70" as="geometry" />
        </mxCell>
        <mxCell id="i2ksJJbB7Hy_UAuFXtkF-14" value="entry/unblock()&#xa;do/checkWeight()&#xa;" style="align=center;strokeColor=none;fillColor=none;spacingLeft=4;fontSize=12;verticalAlign=top;resizable=0;rotatable=0;part=1;" vertex="1" parent="i2ksJJbB7Hy_UAuFXtkF-13">
          <mxGeometry y="30" width="110" height="40" as="geometry" />
        </mxCell>
        <mxCell id="i2ksJJbB7Hy_UAuFXtkF-15" value="" style="endArrow=classic;html=1;rounded=0;exitX=1;exitY=0.25;exitDx=0;exitDy=0;entryX=0;entryY=0.25;entryDx=0;entryDy=0;" edge="1" parent="1" source="i2ksJJbB7Hy_UAuFXtkF-13" target="i2ksJJbB7Hy_UAuFXtkF-1">
          <mxGeometry width="50" height="50" relative="1" as="geometry">
            <mxPoint x="420" y="155" as="sourcePoint" />
            <mxPoint x="470" y="105" as="targetPoint" />
          </mxGeometry>
        </mxCell>
        <mxCell id="i2ksJJbB7Hy_UAuFXtkF-16" value="Customer Inputs an Item" style="text;html=1;strokeColor=none;fillColor=none;align=center;verticalAlign=middle;whiteSpace=wrap;rounded=0;" vertex="1" parent="1">
          <mxGeometry x="410" y="170" width="160" height="30" as="geometry" />
        </mxCell>
        <mxCell id="i2ksJJbB7Hy_UAuFXtkF-17" value="" style="endArrow=classic;html=1;rounded=0;exitX=0;exitY=0.5;exitDx=0;exitDy=0;entryX=1;entryY=0.5;entryDx=0;entryDy=0;" edge="1" parent="1" source="i2ksJJbB7Hy_UAuFXtkF-2" target="i2ksJJbB7Hy_UAuFXtkF-14">
          <mxGeometry width="50" height="50" relative="1" as="geometry">
            <mxPoint x="560" y="295" as="sourcePoint" />
            <mxPoint x="440" y="297" as="targetPoint" />
            <Array as="points">
              <mxPoint x="584" y="225" />
            </Array>
          </mxGeometry>
        </mxCell>
        <mxCell id="i2ksJJbB7Hy_UAuFXtkF-18" value="&lt;span style=&quot;color: rgb(0 , 0 , 0) ; font-family: &amp;#34;helvetica&amp;#34; ; font-size: 12px ; font-style: normal ; font-weight: 400 ; letter-spacing: normal ; text-align: center ; text-indent: 0px ; text-transform: none ; word-spacing: 0px ; background-color: rgb(248 , 249 , 250) ; display: inline ; float: none&quot;&gt;[WeightDiscrepency==false]&lt;/span&gt;" style="text;whiteSpace=wrap;html=1;" vertex="1" parent="1">
          <mxGeometry x="410" y="203" width="170" height="30" as="geometry" />
        </mxCell>
        <mxCell id="i2ksJJbB7Hy_UAuFXtkF-20" value="" style="endArrow=classic;html=1;rounded=0;exitX=0.75;exitY=1;exitDx=0;exitDy=0;entryX=0;entryY=0.25;entryDx=0;entryDy=0;" edge="1" parent="1" source="i2ksJJbB7Hy_UAuFXtkF-14" target="i2ksJJbB7Hy_UAuFXtkF-6">
          <mxGeometry width="50" height="50" relative="1" as="geometry">
            <mxPoint x="420" y="155" as="sourcePoint" />
            <mxPoint x="470" y="105" as="targetPoint" />
            <Array as="points">
              <mxPoint x="363" y="301" />
            </Array>
          </mxGeometry>
        </mxCell>
        <mxCell id="i2ksJJbB7Hy_UAuFXtkF-21" value="&lt;span style=&quot;color: rgb(0 , 0 , 0) ; font-family: &amp;#34;helvetica&amp;#34; ; font-size: 12px ; font-style: normal ; font-weight: 400 ; letter-spacing: normal ; text-align: center ; text-indent: 0px ; text-transform: none ; word-spacing: 0px ; background-color: rgb(248 , 249 , 250) ; display: inline ; float: none&quot;&gt;[WeightDiscrepency==false]&lt;/span&gt;" style="text;whiteSpace=wrap;html=1;" vertex="1" parent="1">
          <mxGeometry x="385" y="315" width="170" height="30" as="geometry" />
        </mxCell>
        <mxCell id="i2ksJJbB7Hy_UAuFXtkF-23" value="" style="endArrow=classic;html=1;rounded=0;exitX=0;exitY=0.5;exitDx=0;exitDy=0;entryX=0.5;entryY=1;entryDx=0;entryDy=0;" edge="1" parent="1" source="i2ksJJbB7Hy_UAuFXtkF-7" target="i2ksJJbB7Hy_UAuFXtkF-14">
          <mxGeometry width="50" height="50" relative="1" as="geometry">
            <mxPoint x="430" y="225" as="sourcePoint" />
            <mxPoint x="480" y="175" as="targetPoint" />
            <Array as="points">
              <mxPoint x="335" y="338" />
            </Array>
          </mxGeometry>
        </mxCell>
        <mxCell id="i2ksJJbB7Hy_UAuFXtkF-24" value="&lt;span style=&quot;color: rgb(0, 0, 0); font-family: helvetica; font-size: 12px; font-style: normal; font-weight: 400; letter-spacing: normal; text-align: center; text-indent: 0px; text-transform: none; word-spacing: 0px; background-color: rgb(248, 249, 250); display: inline; float: none;&quot;&gt;[WeightDiscrepency==true]&lt;/span&gt;" style="text;whiteSpace=wrap;html=1;" vertex="1" parent="1">
          <mxGeometry x="403" y="278" width="170" height="30" as="geometry" />
        </mxCell>
        <mxCell id="i2ksJJbB7Hy_UAuFXtkF-28" value="Checkout" style="swimlane;childLayout=stackLayout;horizontal=1;startSize=30;horizontalStack=0;rounded=1;fontSize=14;fontStyle=0;strokeWidth=2;resizeParent=0;resizeLast=1;shadow=0;dashed=0;align=center;" vertex="1" parent="1">
          <mxGeometry x="80" y="175" width="130" height="70" as="geometry" />
        </mxCell>
        <mxCell id="i2ksJJbB7Hy_UAuFXtkF-29" value="entry/block&#xa;do/PaymentMethods" style="align=center;strokeColor=none;fillColor=none;spacingLeft=4;fontSize=12;verticalAlign=top;resizable=0;rotatable=0;part=1;" vertex="1" parent="i2ksJJbB7Hy_UAuFXtkF-28">
          <mxGeometry y="30" width="130" height="40" as="geometry" />
        </mxCell>
        <mxCell id="i2ksJJbB7Hy_UAuFXtkF-40" value="" style="endArrow=classic;html=1;rounded=0;exitX=0;exitY=0;exitDx=0;exitDy=0;entryX=0.5;entryY=0;entryDx=0;entryDy=0;" edge="1" parent="i2ksJJbB7Hy_UAuFXtkF-28" source="i2ksJJbB7Hy_UAuFXtkF-29" target="i2ksJJbB7Hy_UAuFXtkF-28">
          <mxGeometry width="50" height="50" relative="1" as="geometry">
            <mxPoint x="220" y="5" as="sourcePoint" />
            <mxPoint x="20" y="-45" as="targetPoint" />
            <Array as="points">
              <mxPoint x="-20" y="30" />
              <mxPoint x="-20" y="-25" />
              <mxPoint x="65" y="-25" />
            </Array>
          </mxGeometry>
        </mxCell>
        <mxCell id="i2ksJJbB7Hy_UAuFXtkF-32" value="" style="endArrow=classic;html=1;rounded=0;entryX=0;entryY=0.75;entryDx=0;entryDy=0;exitX=1;exitY=0.75;exitDx=0;exitDy=0;" edge="1" parent="1" source="i2ksJJbB7Hy_UAuFXtkF-29" target="i2ksJJbB7Hy_UAuFXtkF-14">
          <mxGeometry width="50" height="50" relative="1" as="geometry">
            <mxPoint x="210" y="235" as="sourcePoint" />
            <mxPoint x="280" y="233" as="targetPoint" />
          </mxGeometry>
        </mxCell>
        <mxCell id="i2ksJJbB7Hy_UAuFXtkF-33" value="" style="endArrow=classic;html=1;rounded=0;exitX=0;exitY=0.25;exitDx=0;exitDy=0;entryX=1;entryY=0.25;entryDx=0;entryDy=0;" edge="1" parent="1" source="i2ksJJbB7Hy_UAuFXtkF-13" target="i2ksJJbB7Hy_UAuFXtkF-28">
          <mxGeometry width="50" height="50" relative="1" as="geometry">
            <mxPoint x="200" y="270" as="sourcePoint" />
            <mxPoint x="250" y="220" as="targetPoint" />
          </mxGeometry>
        </mxCell>
        <mxCell id="i2ksJJbB7Hy_UAuFXtkF-34" value="Proceed to Checkout" style="text;html=1;strokeColor=none;fillColor=none;align=center;verticalAlign=middle;whiteSpace=wrap;rounded=0;" vertex="1" parent="1">
          <mxGeometry x="200" y="160" width="90" height="30" as="geometry" />
        </mxCell>
        <mxCell id="i2ksJJbB7Hy_UAuFXtkF-35" value="Return to bagging" style="text;html=1;strokeColor=none;fillColor=none;align=center;verticalAlign=middle;whiteSpace=wrap;rounded=0;" vertex="1" parent="1">
          <mxGeometry x="200" y="203" width="90" height="30" as="geometry" />
        </mxCell>
        <mxCell id="i2ksJJbB7Hy_UAuFXtkF-36" value="" style="endArrow=classic;html=1;rounded=0;exitX=0.5;exitY=1;exitDx=0;exitDy=0;entryX=0.5;entryY=0;entryDx=0;entryDy=0;" edge="1" parent="1" source="i2ksJJbB7Hy_UAuFXtkF-29" target="i2ksJJbB7Hy_UAuFXtkF-37">
          <mxGeometry width="50" height="50" relative="1" as="geometry">
            <mxPoint x="150" y="320" as="sourcePoint" />
            <mxPoint x="145" y="310" as="targetPoint" />
          </mxGeometry>
        </mxCell>
        <mxCell id="i2ksJJbB7Hy_UAuFXtkF-37" value="EndCleanUp" style="swimlane;childLayout=stackLayout;horizontal=1;startSize=30;horizontalStack=0;rounded=1;fontSize=14;fontStyle=0;strokeWidth=2;resizeParent=0;resizeLast=1;shadow=0;dashed=0;align=center;" vertex="1" parent="1">
          <mxGeometry x="82.5" y="315" width="125" height="65" as="geometry" />
        </mxCell>
        <mxCell id="i2ksJJbB7Hy_UAuFXtkF-38" value="entry/returnAnyChange&#xa;entry/printReceipt&#xa;" style="align=center;strokeColor=none;fillColor=none;spacingLeft=4;fontSize=12;verticalAlign=top;resizable=0;rotatable=0;part=1;" vertex="1" parent="i2ksJJbB7Hy_UAuFXtkF-37">
          <mxGeometry y="30" width="125" height="35" as="geometry" />
        </mxCell>
        <mxCell id="i2ksJJbB7Hy_UAuFXtkF-41" value="Maintanance" style="swimlane;childLayout=stackLayout;horizontal=1;startSize=30;horizontalStack=0;rounded=1;fontSize=14;fontStyle=0;strokeWidth=2;resizeParent=0;resizeLast=1;shadow=0;dashed=0;align=center;" vertex="1" parent="1">
          <mxGeometry x="277.5" y="50" width="115" height="70" as="geometry" />
        </mxCell>
        <mxCell id="i2ksJJbB7Hy_UAuFXtkF-42" value="+entry/block&#xa;+do/AttendFixes" style="align=center;strokeColor=none;fillColor=none;spacingLeft=4;fontSize=12;verticalAlign=top;resizable=0;rotatable=0;part=1;" vertex="1" parent="i2ksJJbB7Hy_UAuFXtkF-41">
          <mxGeometry y="30" width="115" height="40" as="geometry" />
        </mxCell>
        <mxCell id="i2ksJJbB7Hy_UAuFXtkF-45" value="" style="endArrow=classic;html=1;rounded=0;exitX=0.5;exitY=0;exitDx=0;exitDy=0;entryX=0.5;entryY=1;entryDx=0;entryDy=0;" edge="1" parent="1" source="i2ksJJbB7Hy_UAuFXtkF-13" target="i2ksJJbB7Hy_UAuFXtkF-42">
          <mxGeometry width="50" height="50" relative="1" as="geometry">
            <mxPoint x="330" y="30" as="sourcePoint" />
            <mxPoint x="380" y="-20" as="targetPoint" />
          </mxGeometry>
        </mxCell>
        <mxCell id="i2ksJJbB7Hy_UAuFXtkF-46" value="&lt;span style=&quot;color: rgb(0 , 0 , 0) ; font-family: &amp;#34;helvetica&amp;#34; ; font-size: 12px ; font-style: normal ; font-weight: 400 ; letter-spacing: normal ; text-align: center ; text-indent: 0px ; text-transform: none ; word-spacing: 0px ; background-color: rgb(248 , 249 , 250) ; display: inline ; float: none&quot;&gt;[RequiresMaintanance==true]&lt;/span&gt;" style="text;whiteSpace=wrap;html=1;" vertex="1" parent="1">
          <mxGeometry x="170" y="130" width="170" height="30" as="geometry" />
        </mxCell>
        <mxCell id="i2ksJJbB7Hy_UAuFXtkF-47" value="&lt;span style=&quot;color: rgb(0 , 0 , 0) ; font-family: &amp;#34;helvetica&amp;#34; ; font-size: 12px ; font-style: normal ; font-weight: 400 ; letter-spacing: normal ; text-align: center ; text-indent: 0px ; text-transform: none ; word-spacing: 0px ; background-color: rgb(248 , 249 , 250) ; display: inline ; float: none&quot;&gt;[RequiresMaintanance==false]&lt;/span&gt;" style="text;whiteSpace=wrap;html=1;" vertex="1" parent="1">
          <mxGeometry x="370" y="130" width="170" height="30" as="geometry" />
        </mxCell>
        <mxCell id="i2ksJJbB7Hy_UAuFXtkF-49" value="FinishPayment [total &amp;gt;0]" style="text;html=1;strokeColor=none;fillColor=none;align=center;verticalAlign=middle;whiteSpace=wrap;rounded=0;" vertex="1" parent="1">
          <mxGeometry x="60" y="121" width="90" height="30" as="geometry" />
        </mxCell>
        <mxCell id="i2ksJJbB7Hy_UAuFXtkF-50" value="" style="endArrow=classic;html=1;rounded=0;exitX=1;exitY=0.5;exitDx=0;exitDy=0;entryX=0.25;entryY=1;entryDx=0;entryDy=0;" edge="1" parent="1" source="i2ksJJbB7Hy_UAuFXtkF-37" target="i2ksJJbB7Hy_UAuFXtkF-14">
          <mxGeometry width="50" height="50" relative="1" as="geometry">
            <mxPoint x="230" y="320" as="sourcePoint" />
            <mxPoint x="280" y="270" as="targetPoint" />
            <Array as="points">
              <mxPoint x="308" y="348" />
            </Array>
          </mxGeometry>
        </mxCell>
        <mxCell id="i2ksJJbB7Hy_UAuFXtkF-51" value="Customerleaves" style="text;html=1;strokeColor=none;fillColor=none;align=center;verticalAlign=middle;whiteSpace=wrap;rounded=0;" vertex="1" parent="1">
          <mxGeometry x="220" y="345" width="90" height="30" as="geometry" />
        </mxCell>
        <mxCell id="i2ksJJbB7Hy_UAuFXtkF-54" value="" style="endArrow=classic;html=1;rounded=0;entryX=0.818;entryY=0.012;entryDx=0;entryDy=0;entryPerimeter=0;" edge="1" parent="1" target="i2ksJJbB7Hy_UAuFXtkF-13">
          <mxGeometry width="50" height="50" relative="1" as="geometry">
            <mxPoint x="370" y="120" as="sourcePoint" />
            <mxPoint x="370" y="170" as="targetPoint" />
          </mxGeometry>
        </mxCell>
        <mxCell id="i2ksJJbB7Hy_UAuFXtkF-59" value="FinishPayment [total &amp;lt;=0]" style="text;html=1;strokeColor=none;fillColor=none;align=center;verticalAlign=middle;whiteSpace=wrap;rounded=0;" vertex="1" parent="1">
          <mxGeometry x="61" y="258" width="90" height="30" as="geometry" />
        </mxCell>
      </root>
    </mxGraphModel>
  </diagram>
  <diagram id="G1JGiKkkxIMLo0qI9T0r" name="Scanning/Bagging">
    <mxGraphModel grid="1" page="1" gridSize="10" guides="1" tooltips="1" connect="1" arrows="1" fold="1" pageScale="1" pageWidth="850" pageHeight="1100" math="0" shadow="0">
      <root>
        <mxCell id="0XoCRNA-fFdHAsAMeYVR-0" />
        <mxCell id="0XoCRNA-fFdHAsAMeYVR-1" parent="0XoCRNA-fFdHAsAMeYVR-0" />
        <mxCell id="xRnRDYIn3ArZQHywkmsm-11" style="edgeStyle=orthogonalEdgeStyle;rounded=0;orthogonalLoop=1;jettySize=auto;html=1;exitX=0.5;exitY=0;exitDx=0;exitDy=0;entryX=1;entryY=0.5;entryDx=0;entryDy=0;fontColor=#06040A;" edge="1" parent="0XoCRNA-fFdHAsAMeYVR-1" source="c2NtV0sda1ZvMEl48lzR-0" target="UhUHxP_FGDqcnMJL-cjD-6">
          <mxGeometry relative="1" as="geometry" />
        </mxCell>
        <mxCell id="c2NtV0sda1ZvMEl48lzR-0" value="Attendant Update Cart&lt;span style=&quot;color: rgba(0 , 0 , 0 , 0) ; font-family: monospace ; font-size: 0px&quot;&gt;%3CmxGraphModel%3E%3Croot%3E%3CmxCell%20id%3D%220%22%2F%3E%3CmxCell%20id%3D%221%22%20parent%3D%220%22%2F%3E%3CmxCell%20id%3D%222%22%20value%3D%22SelfCheckoutStation%20Unblocked%22%20style%3D%22rounded%3D1%3BwhiteSpace%3Dwrap%3Bhtml%3D1%3BarcSize%3D24%3Bshadow%3D0%3Bcomic%3D0%3BlabelBackgroundColor%3Dnone%3BfontFamily%3DVerdana%3BfontSize%3D12%3Balign%3Dcenter%3B%22%20vertex%3D%221%22%20parent%3D%221%22%3E%3CmxGeometry%20x%3D%22850%22%20y%3D%22270%22%20width%3D%22140%22%20height%3D%2260%22%20as%3D%22geometry%22%2F%3E%3C%2FmxCell%3E%3C%2Froot%3E%3C%2FmxGraphModel%3E&lt;/span&gt;" style="rounded=1;whiteSpace=wrap;html=1;arcSize=24;shadow=0;comic=0;labelBackgroundColor=none;fontFamily=Verdana;fontSize=12;align=center;" parent="0XoCRNA-fFdHAsAMeYVR-1" vertex="1">
          <mxGeometry x="1060" y="480" width="120" height="60" as="geometry" />
        </mxCell>
        <mxCell id="c2NtV0sda1ZvMEl48lzR-1" value="&lt;div&gt;&lt;span&gt;&lt;font style=&quot;font-size: 12px&quot;&gt;ProductNotFound&lt;/font&gt;&lt;/span&gt;&lt;/div&gt;&lt;div&gt;&lt;span&gt;&lt;font style=&quot;font-size: 12px&quot;&gt;&lt;br&gt;&lt;/font&gt;&lt;/span&gt;&lt;/div&gt;&lt;div&gt;&lt;span&gt;&lt;font style=&quot;font-size: 12px&quot;&gt;do/warn&lt;/font&gt;&lt;/span&gt;&lt;/div&gt;" style="rounded=1;whiteSpace=wrap;html=1;arcSize=24;shadow=0;comic=0;labelBackgroundColor=none;fontFamily=Verdana;fontSize=12;align=center;" parent="0XoCRNA-fFdHAsAMeYVR-1" vertex="1">
          <mxGeometry x="150" y="600" width="120" height="70" as="geometry" />
        </mxCell>
        <mxCell id="c2NtV0sda1ZvMEl48lzR-2" value="SelfCheckoutStation Blocked" style="rounded=1;whiteSpace=wrap;html=1;arcSize=24;shadow=0;comic=0;labelBackgroundColor=none;fontFamily=Verdana;fontSize=12;align=center;" parent="0XoCRNA-fFdHAsAMeYVR-1" vertex="1">
          <mxGeometry x="560" y="460" width="140" height="60" as="geometry" />
        </mxCell>
        <mxCell id="Cww2yrWLBD_yT8LeN-82-0" value="Pieces of Information we wanna keep track of-&amp;nbsp;&lt;br&gt;1. Total Costs&lt;br&gt;2. Input for Product info&lt;br&gt;2. a. PLU codes&lt;br&gt;2.b. Barcodes&lt;br&gt;2.c. Manually Searching Against the database (Can return)&amp;nbsp;&lt;br&gt;3. Verification of that input against the database&amp;nbsp;&lt;br&gt;3.a. Products are barcode&lt;br&gt;3.b. Products are PLU&amp;nbsp;&lt;br&gt;4. List of Verified Products (Things that are added to our cart)&amp;nbsp;&lt;br&gt;5. Scanners/Processes Blocked(Attendant)&amp;nbsp;&lt;br&gt;6. Verification involved with Scanners/Processes&amp;nbsp;&lt;br&gt;7. Scanners/Processes Blocked&amp;nbsp;&lt;br&gt;8. Scan Item without BAGGING??? (Attendant)&lt;br&gt;9. Scan and Bag Item.&lt;br&gt;" style="text;html=1;strokeColor=none;fillColor=none;align=center;verticalAlign=middle;whiteSpace=wrap;rounded=0;" parent="0XoCRNA-fFdHAsAMeYVR-1" vertex="1">
          <mxGeometry x="50" y="40" width="550" height="190" as="geometry" />
        </mxCell>
        <mxCell id="6MBmhTJW1s7knyYFLO1K-0" value="Inputting Product Info" style="rounded=1;whiteSpace=wrap;html=1;arcSize=24;shadow=0;comic=0;labelBackgroundColor=none;fontFamily=Verdana;fontSize=12;align=center;" parent="0XoCRNA-fFdHAsAMeYVR-1" vertex="1">
          <mxGeometry x="140" y="420" width="120" height="60" as="geometry" />
        </mxCell>
        <mxCell id="jVk_5hOcIGzKOVY6H5p--3" style="edgeStyle=orthogonalEdgeStyle;rounded=0;orthogonalLoop=1;jettySize=auto;html=1;endArrow=openThin;endFill=0;" parent="0XoCRNA-fFdHAsAMeYVR-1" target="6MBmhTJW1s7knyYFLO1K-0" edge="1">
          <mxGeometry relative="1" as="geometry">
            <mxPoint x="80" y="370" as="sourcePoint" />
            <Array as="points">
              <mxPoint x="80" y="350" />
              <mxPoint x="80" y="385" />
              <mxPoint x="200" y="385" />
            </Array>
          </mxGeometry>
        </mxCell>
        <mxCell id="jVk_5hOcIGzKOVY6H5p--1" value="" style="shape=ellipse;html=1;fillColor=#000000;fontSize=18;fontColor=#ffffff;" parent="0XoCRNA-fFdHAsAMeYVR-1" vertex="1">
          <mxGeometry x="60" y="310" width="40" height="40" as="geometry" />
        </mxCell>
        <mxCell id="UhUHxP_FGDqcnMJL-cjD-1" value="" style="endArrow=none;html=1;rounded=0;fontSize=12;exitX=0;exitY=0.429;exitDx=0;exitDy=0;entryX=1;entryY=0.414;entryDx=0;entryDy=0;exitPerimeter=0;entryPerimeter=0;" parent="0XoCRNA-fFdHAsAMeYVR-1" source="c2NtV0sda1ZvMEl48lzR-1" target="c2NtV0sda1ZvMEl48lzR-1" edge="1">
          <mxGeometry width="50" height="50" relative="1" as="geometry">
            <mxPoint x="340" y="620" as="sourcePoint" />
            <mxPoint x="270" y="646" as="targetPoint" />
          </mxGeometry>
        </mxCell>
        <mxCell id="UhUHxP_FGDqcnMJL-cjD-4" value="" style="endArrow=classic;html=1;rounded=0;fontSize=13;exitX=0.5;exitY=1;exitDx=0;exitDy=0;entryX=0.425;entryY=0.007;entryDx=0;entryDy=0;entryPerimeter=0;" parent="0XoCRNA-fFdHAsAMeYVR-1" source="6MBmhTJW1s7knyYFLO1K-0" target="c2NtV0sda1ZvMEl48lzR-1" edge="1">
          <mxGeometry width="50" height="50" relative="1" as="geometry">
            <mxPoint x="200" y="580" as="sourcePoint" />
            <mxPoint x="250" y="530" as="targetPoint" />
          </mxGeometry>
        </mxCell>
        <mxCell id="xRnRDYIn3ArZQHywkmsm-10" style="edgeStyle=orthogonalEdgeStyle;rounded=0;orthogonalLoop=1;jettySize=auto;html=1;exitX=1;exitY=0.5;exitDx=0;exitDy=0;entryX=0;entryY=0.5;entryDx=0;entryDy=0;fontColor=#06040A;" edge="1" parent="0XoCRNA-fFdHAsAMeYVR-1" source="UhUHxP_FGDqcnMJL-cjD-5" target="c2NtV0sda1ZvMEl48lzR-0">
          <mxGeometry relative="1" as="geometry" />
        </mxCell>
        <mxCell id="UhUHxP_FGDqcnMJL-cjD-5" value="Attendant Verification Required" style="rounded=1;whiteSpace=wrap;html=1;arcSize=24;shadow=0;comic=0;labelBackgroundColor=none;fontFamily=Verdana;fontSize=12;align=center;" parent="0XoCRNA-fFdHAsAMeYVR-1" vertex="1">
          <mxGeometry x="780" y="630" width="140" height="60" as="geometry" />
        </mxCell>
        <mxCell id="UhUHxP_FGDqcnMJL-cjD-6" value="SelfCheckoutStation Unblocked" style="rounded=1;whiteSpace=wrap;html=1;arcSize=24;shadow=0;comic=0;labelBackgroundColor=none;fontFamily=Verdana;fontSize=12;align=center;" parent="0XoCRNA-fFdHAsAMeYVR-1" vertex="1">
          <mxGeometry x="830" y="330" width="140" height="60" as="geometry" />
        </mxCell>
        <mxCell id="UhUHxP_FGDqcnMJL-cjD-7" value="" style="endArrow=classic;html=1;rounded=0;fontSize=13;exitX=1;exitY=0.5;exitDx=0;exitDy=0;entryX=0;entryY=0.5;entryDx=0;entryDy=0;" parent="0XoCRNA-fFdHAsAMeYVR-1" source="6MBmhTJW1s7knyYFLO1K-0" target="c2NtV0sda1ZvMEl48lzR-2" edge="1">
          <mxGeometry width="50" height="50" relative="1" as="geometry">
            <mxPoint x="399.9999999999999" y="480" as="sourcePoint" />
            <mxPoint x="401" y="600.49" as="targetPoint" />
          </mxGeometry>
        </mxCell>
        <mxCell id="UhUHxP_FGDqcnMJL-cjD-8" value="" style="endArrow=classic;html=1;rounded=0;fontSize=13;exitX=0.5;exitY=1;exitDx=0;exitDy=0;entryX=0.5;entryY=0;entryDx=0;entryDy=0;" parent="0XoCRNA-fFdHAsAMeYVR-1" source="c2NtV0sda1ZvMEl48lzR-2" target="UhUHxP_FGDqcnMJL-cjD-5" edge="1">
          <mxGeometry width="50" height="50" relative="1" as="geometry">
            <mxPoint x="270" y="460" as="sourcePoint" />
            <mxPoint x="520" y="460" as="targetPoint" />
          </mxGeometry>
        </mxCell>
        <mxCell id="UhUHxP_FGDqcnMJL-cjD-10" value="" style="endArrow=classic;html=1;rounded=0;fontSize=13;" parent="0XoCRNA-fFdHAsAMeYVR-1" edge="1">
          <mxGeometry width="50" height="50" relative="1" as="geometry">
            <mxPoint x="820" y="360" as="sourcePoint" />
            <mxPoint x="240" y="420" as="targetPoint" />
            <Array as="points">
              <mxPoint x="770" y="360" />
              <mxPoint x="240" y="360" />
            </Array>
          </mxGeometry>
        </mxCell>
        <mxCell id="UhUHxP_FGDqcnMJL-cjD-11" value="weightChanged() [blocked] / weightDiscBlock()" style="text;html=1;align=center;verticalAlign=middle;resizable=0;points=[];autosize=1;strokeColor=none;fillColor=none;fontSize=13;" parent="0XoCRNA-fFdHAsAMeYVR-1" vertex="1">
          <mxGeometry x="270" y="430" width="280" height="20" as="geometry" />
        </mxCell>
        <mxCell id="xRnRDYIn3ArZQHywkmsm-2" value="From attendant:&lt;br&gt;1. Weight Corrections- &amp;gt; unblocked&lt;br&gt;2. Validated the bag-&amp;gt; unblocked&lt;br&gt;3. Removed a product-&amp;gt; Update Cart&lt;br&gt;4.&amp;nbsp;" style="text;html=1;strokeColor=none;fillColor=none;align=center;verticalAlign=middle;whiteSpace=wrap;rounded=0;" vertex="1" parent="0XoCRNA-fFdHAsAMeYVR-1">
          <mxGeometry x="530" y="250" width="260" height="30" as="geometry" />
        </mxCell>
        <mxCell id="xRnRDYIn3ArZQHywkmsm-3" value="Customer Update Cart&lt;span style=&quot;color: rgba(0 , 0 , 0 , 0) ; font-family: monospace ; font-size: 0px&quot;&gt;%3CmxGraphModel%3E%3Croot%3E%3CmxCell%20id%3D%220%22%2F%3E%3CmxCell%20id%3D%221%22%20parent%3D%220%22%2F%3E%3CmxCell%20id%3D%222%22%20value%3D%22SelfCheckoutStation%20Unblocked%22%20style%3D%22rounded%3D1%3BwhiteSpace%3Dwrap%3Bhtml%3D1%3BarcSize%3D24%3Bshadow%3D0%3Bcomic%3D0%3BlabelBackgroundColor%3Dnone%3BfontFamily%3DVerdana%3BfontSize%3D12%3Balign%3Dcenter%3B%22%20vertex%3D%221%22%20parent%3D%221%22%3E%3CmxGeometry%20x%3D%22850%22%20y%3D%22270%22%20width%3D%22140%22%20height%3D%2260%22%20as%3D%22geometry%22%2F%3E%3C%2FmxCell%3E%3C%2Froot%3E%3C%2FmxGraphModel%3E&lt;/span&gt;" style="rounded=1;whiteSpace=wrap;html=1;arcSize=24;shadow=0;comic=0;labelBackgroundColor=none;fontFamily=Verdana;fontSize=12;align=center;" vertex="1" parent="0XoCRNA-fFdHAsAMeYVR-1">
          <mxGeometry x="470" y="670" width="120" height="60" as="geometry" />
        </mxCell>
        <mxCell id="xRnRDYIn3ArZQHywkmsm-4" value="&lt;div&gt;&lt;span style=&quot;font-size: 13px&quot;&gt;useOwnBags() [blocked] / ownBagBlock()&lt;/span&gt;&lt;/div&gt;" style="text;html=1;strokeColor=none;fillColor=none;align=center;verticalAlign=middle;whiteSpace=wrap;rounded=0;" vertex="1" parent="0XoCRNA-fFdHAsAMeYVR-1">
          <mxGeometry x="270" y="480" width="270" height="30" as="geometry" />
        </mxCell>
        <mxCell id="xRnRDYIn3ArZQHywkmsm-5" value="removeFromCart() [! currentItemRemoved]/&lt;br&gt;weightDiscBlock()&lt;br&gt;&amp;nbsp;" style="text;html=1;strokeColor=none;fillColor=none;align=center;verticalAlign=middle;whiteSpace=wrap;rounded=0;" vertex="1" parent="0XoCRNA-fFdHAsAMeYVR-1">
          <mxGeometry x="280" y="520" width="250" height="40" as="geometry" />
        </mxCell>
        <mxCell id="xRnRDYIn3ArZQHywkmsm-7" value="&lt;span style=&quot;font-family: , , &amp;#34;sf mono&amp;#34; , &amp;#34;menlo&amp;#34; , &amp;#34;consolas&amp;#34; , &amp;#34;liberation mono&amp;#34; , monospace ; background-color: rgb(255 , 255 , 255)&quot;&gt;notifyWeightDiscBlock()&lt;/span&gt;" style="text;html=1;align=center;verticalAlign=middle;resizable=0;points=[];autosize=1;strokeColor=none;fillColor=none;" vertex="1" parent="0XoCRNA-fFdHAsAMeYVR-1">
          <mxGeometry x="620" y="580" width="140" height="20" as="geometry" />
        </mxCell>
        <mxCell id="xRnRDYIn3ArZQHywkmsm-8" value="&lt;span style=&quot;font-family: , , &amp;#34;sf mono&amp;#34; , &amp;#34;menlo&amp;#34; , &amp;#34;consolas&amp;#34; , &amp;#34;liberation mono&amp;#34; , monospace ; background-color: rgb(255 , 255 , 255)&quot;&gt;&lt;font color=&quot;#06040a&quot;&gt;notifyOwnBagBlock()&lt;/font&gt;&lt;/span&gt;" style="text;html=1;align=center;verticalAlign=middle;resizable=0;points=[];autosize=1;strokeColor=none;fillColor=none;" vertex="1" parent="0XoCRNA-fFdHAsAMeYVR-1">
          <mxGeometry x="640" y="600" width="130" height="20" as="geometry" />
        </mxCell>
      </root>
    </mxGraphModel>
  </diagram>
  <diagram name="Copy of Scanning/Bagging" id="Bi2dVXNV6WFTIEATySSP">
    <mxGraphModel dx="946" dy="646" grid="1" gridSize="10" guides="1" tooltips="1" connect="1" arrows="1" fold="1" page="1" pageScale="1" pageWidth="850" pageHeight="1100" math="0" shadow="0">
      <root>
        <mxCell id="fTOtLGZc1tBef4jWmARQ-0" />
        <mxCell id="fTOtLGZc1tBef4jWmARQ-1" parent="fTOtLGZc1tBef4jWmARQ-0" />
        <mxCell id="fTOtLGZc1tBef4jWmARQ-2" style="edgeStyle=orthogonalEdgeStyle;rounded=0;orthogonalLoop=1;jettySize=auto;html=1;exitX=0.5;exitY=0;exitDx=0;exitDy=0;entryX=1;entryY=0.5;entryDx=0;entryDy=0;fontColor=#06040A;" edge="1" parent="fTOtLGZc1tBef4jWmARQ-1" source="fTOtLGZc1tBef4jWmARQ-3" target="fTOtLGZc1tBef4jWmARQ-14">
          <mxGeometry relative="1" as="geometry" />
        </mxCell>
        <mxCell id="fTOtLGZc1tBef4jWmARQ-3" value="Attendant Update Cart&lt;span style=&quot;color: rgba(0 , 0 , 0 , 0) ; font-family: monospace ; font-size: 0px&quot;&gt;%3CmxGraphModel%3E%3Croot%3E%3CmxCell%20id%3D%220%22%2F%3E%3CmxCell%20id%3D%221%22%20parent%3D%220%22%2F%3E%3CmxCell%20id%3D%222%22%20value%3D%22SelfCheckoutStation%20Unblocked%22%20style%3D%22rounded%3D1%3BwhiteSpace%3Dwrap%3Bhtml%3D1%3BarcSize%3D24%3Bshadow%3D0%3Bcomic%3D0%3BlabelBackgroundColor%3Dnone%3BfontFamily%3DVerdana%3BfontSize%3D12%3Balign%3Dcenter%3B%22%20vertex%3D%221%22%20parent%3D%221%22%3E%3CmxGeometry%20x%3D%22850%22%20y%3D%22270%22%20width%3D%22140%22%20height%3D%2260%22%20as%3D%22geometry%22%2F%3E%3C%2FmxCell%3E%3C%2Froot%3E%3C%2FmxGraphModel%3E&lt;/span&gt;" style="rounded=1;whiteSpace=wrap;html=1;arcSize=24;shadow=0;comic=0;labelBackgroundColor=none;fontFamily=Verdana;fontSize=12;align=center;" vertex="1" parent="fTOtLGZc1tBef4jWmARQ-1">
          <mxGeometry x="1060" y="480" width="120" height="60" as="geometry" />
        </mxCell>
        <mxCell id="fTOtLGZc1tBef4jWmARQ-4" value="&lt;div&gt;&lt;span&gt;&lt;font style=&quot;font-size: 12px&quot;&gt;ProductNotFound&lt;/font&gt;&lt;/span&gt;&lt;/div&gt;&lt;div&gt;&lt;span&gt;&lt;font style=&quot;font-size: 12px&quot;&gt;&lt;br&gt;&lt;/font&gt;&lt;/span&gt;&lt;/div&gt;&lt;div&gt;&lt;span&gt;&lt;font style=&quot;font-size: 12px&quot;&gt;do/warn&lt;/font&gt;&lt;/span&gt;&lt;/div&gt;" style="rounded=1;whiteSpace=wrap;html=1;arcSize=24;shadow=0;comic=0;labelBackgroundColor=none;fontFamily=Verdana;fontSize=12;align=center;" vertex="1" parent="fTOtLGZc1tBef4jWmARQ-1">
          <mxGeometry x="150" y="600" width="120" height="70" as="geometry" />
        </mxCell>
        <mxCell id="fTOtLGZc1tBef4jWmARQ-5" value="SelfCheckoutStation Blocked" style="rounded=1;whiteSpace=wrap;html=1;arcSize=24;shadow=0;comic=0;labelBackgroundColor=none;fontFamily=Verdana;fontSize=12;align=center;" vertex="1" parent="fTOtLGZc1tBef4jWmARQ-1">
          <mxGeometry x="560" y="460" width="140" height="60" as="geometry" />
        </mxCell>
        <mxCell id="fTOtLGZc1tBef4jWmARQ-6" value="Pieces of Information we wanna keep track of-&amp;nbsp;&lt;br&gt;1. Total Costs&lt;br&gt;2. Input for Product info&lt;br&gt;2. a. PLU codes&lt;br&gt;2.b. Barcodes&lt;br&gt;2.c. Manually Searching Against the database (Can return)&amp;nbsp;&lt;br&gt;3. Verification of that input against the database&amp;nbsp;&lt;br&gt;3.a. Products are barcode&lt;br&gt;3.b. Products are PLU&amp;nbsp;&lt;br&gt;4. List of Verified Products (Things that are added to our cart)&amp;nbsp;&lt;br&gt;5. Scanners/Processes Blocked(Attendant)&amp;nbsp;&lt;br&gt;6. Verification involved with Scanners/Processes&amp;nbsp;&lt;br&gt;7. Scanners/Processes Blocked&amp;nbsp;&lt;br&gt;8. Scan Item without BAGGING??? (Attendant)&lt;br&gt;9. Scan and Bag Item.&lt;br&gt;" style="text;html=1;strokeColor=none;fillColor=none;align=center;verticalAlign=middle;whiteSpace=wrap;rounded=0;" vertex="1" parent="fTOtLGZc1tBef4jWmARQ-1">
          <mxGeometry x="50" y="40" width="550" height="190" as="geometry" />
        </mxCell>
        <mxCell id="fTOtLGZc1tBef4jWmARQ-7" value="Inputting Product Info" style="rounded=1;whiteSpace=wrap;html=1;arcSize=24;shadow=0;comic=0;labelBackgroundColor=none;fontFamily=Verdana;fontSize=12;align=center;" vertex="1" parent="fTOtLGZc1tBef4jWmARQ-1">
          <mxGeometry x="140" y="420" width="120" height="60" as="geometry" />
        </mxCell>
        <mxCell id="fTOtLGZc1tBef4jWmARQ-8" style="edgeStyle=orthogonalEdgeStyle;rounded=0;orthogonalLoop=1;jettySize=auto;html=1;endArrow=openThin;endFill=0;" edge="1" parent="fTOtLGZc1tBef4jWmARQ-1" target="fTOtLGZc1tBef4jWmARQ-7">
          <mxGeometry relative="1" as="geometry">
            <mxPoint x="80" y="370" as="sourcePoint" />
            <Array as="points">
              <mxPoint x="80" y="350" />
              <mxPoint x="80" y="385" />
              <mxPoint x="200" y="385" />
            </Array>
          </mxGeometry>
        </mxCell>
        <mxCell id="fTOtLGZc1tBef4jWmARQ-9" value="" style="shape=ellipse;html=1;fillColor=#000000;fontSize=18;fontColor=#ffffff;" vertex="1" parent="fTOtLGZc1tBef4jWmARQ-1">
          <mxGeometry x="60" y="310" width="40" height="40" as="geometry" />
        </mxCell>
        <mxCell id="fTOtLGZc1tBef4jWmARQ-10" value="" style="endArrow=none;html=1;rounded=0;fontSize=12;exitX=0;exitY=0.429;exitDx=0;exitDy=0;entryX=1;entryY=0.414;entryDx=0;entryDy=0;exitPerimeter=0;entryPerimeter=0;" edge="1" parent="fTOtLGZc1tBef4jWmARQ-1" source="fTOtLGZc1tBef4jWmARQ-4" target="fTOtLGZc1tBef4jWmARQ-4">
          <mxGeometry width="50" height="50" relative="1" as="geometry">
            <mxPoint x="340" y="620" as="sourcePoint" />
            <mxPoint x="270" y="646" as="targetPoint" />
          </mxGeometry>
        </mxCell>
        <mxCell id="fTOtLGZc1tBef4jWmARQ-11" value="" style="endArrow=classic;html=1;rounded=0;fontSize=13;exitX=0.5;exitY=1;exitDx=0;exitDy=0;entryX=0.425;entryY=0.007;entryDx=0;entryDy=0;entryPerimeter=0;" edge="1" parent="fTOtLGZc1tBef4jWmARQ-1" source="fTOtLGZc1tBef4jWmARQ-7" target="fTOtLGZc1tBef4jWmARQ-4">
          <mxGeometry width="50" height="50" relative="1" as="geometry">
            <mxPoint x="200" y="580" as="sourcePoint" />
            <mxPoint x="250" y="530" as="targetPoint" />
          </mxGeometry>
        </mxCell>
        <mxCell id="fTOtLGZc1tBef4jWmARQ-12" style="edgeStyle=orthogonalEdgeStyle;rounded=0;orthogonalLoop=1;jettySize=auto;html=1;exitX=1;exitY=0.5;exitDx=0;exitDy=0;entryX=0;entryY=0.5;entryDx=0;entryDy=0;fontColor=#06040A;" edge="1" parent="fTOtLGZc1tBef4jWmARQ-1" source="fTOtLGZc1tBef4jWmARQ-13" target="fTOtLGZc1tBef4jWmARQ-3">
          <mxGeometry relative="1" as="geometry" />
        </mxCell>
        <mxCell id="fTOtLGZc1tBef4jWmARQ-13" value="Attendant Verification Required" style="rounded=1;whiteSpace=wrap;html=1;arcSize=24;shadow=0;comic=0;labelBackgroundColor=none;fontFamily=Verdana;fontSize=12;align=center;" vertex="1" parent="fTOtLGZc1tBef4jWmARQ-1">
          <mxGeometry x="780" y="630" width="140" height="60" as="geometry" />
        </mxCell>
        <mxCell id="fTOtLGZc1tBef4jWmARQ-14" value="SelfCheckoutStation Unblocked" style="rounded=1;whiteSpace=wrap;html=1;arcSize=24;shadow=0;comic=0;labelBackgroundColor=none;fontFamily=Verdana;fontSize=12;align=center;" vertex="1" parent="fTOtLGZc1tBef4jWmARQ-1">
          <mxGeometry x="830" y="330" width="140" height="60" as="geometry" />
        </mxCell>
        <mxCell id="fTOtLGZc1tBef4jWmARQ-15" value="" style="endArrow=classic;html=1;rounded=0;fontSize=13;exitX=1;exitY=0.5;exitDx=0;exitDy=0;entryX=0;entryY=0.5;entryDx=0;entryDy=0;" edge="1" parent="fTOtLGZc1tBef4jWmARQ-1" source="fTOtLGZc1tBef4jWmARQ-7" target="fTOtLGZc1tBef4jWmARQ-5">
          <mxGeometry width="50" height="50" relative="1" as="geometry">
            <mxPoint x="399.9999999999999" y="480" as="sourcePoint" />
            <mxPoint x="401" y="600.49" as="targetPoint" />
          </mxGeometry>
        </mxCell>
        <mxCell id="fTOtLGZc1tBef4jWmARQ-16" value="" style="endArrow=classic;html=1;rounded=0;fontSize=13;exitX=0.5;exitY=1;exitDx=0;exitDy=0;entryX=0.5;entryY=0;entryDx=0;entryDy=0;" edge="1" parent="fTOtLGZc1tBef4jWmARQ-1" source="fTOtLGZc1tBef4jWmARQ-5" target="fTOtLGZc1tBef4jWmARQ-13">
          <mxGeometry width="50" height="50" relative="1" as="geometry">
            <mxPoint x="270" y="460" as="sourcePoint" />
            <mxPoint x="520" y="460" as="targetPoint" />
          </mxGeometry>
        </mxCell>
        <mxCell id="fTOtLGZc1tBef4jWmARQ-17" value="" style="endArrow=classic;html=1;rounded=0;fontSize=13;" edge="1" parent="fTOtLGZc1tBef4jWmARQ-1">
          <mxGeometry width="50" height="50" relative="1" as="geometry">
            <mxPoint x="820" y="360" as="sourcePoint" />
            <mxPoint x="240" y="420" as="targetPoint" />
            <Array as="points">
              <mxPoint x="770" y="360" />
              <mxPoint x="240" y="360" />
            </Array>
          </mxGeometry>
        </mxCell>
        <mxCell id="fTOtLGZc1tBef4jWmARQ-18" value="weightChanged() [blocked] / weightDiscBlock()" style="text;html=1;align=center;verticalAlign=middle;resizable=0;points=[];autosize=1;strokeColor=none;fillColor=none;fontSize=13;" vertex="1" parent="fTOtLGZc1tBef4jWmARQ-1">
          <mxGeometry x="270" y="430" width="280" height="20" as="geometry" />
        </mxCell>
        <mxCell id="fTOtLGZc1tBef4jWmARQ-19" value="From attendant:&lt;br&gt;1. Weight Corrections- &amp;gt; unblocked&lt;br&gt;2. Validated the bag-&amp;gt; unblocked&lt;br&gt;3. Removed a product-&amp;gt; Update Cart&lt;br&gt;4.&amp;nbsp;" style="text;html=1;strokeColor=none;fillColor=none;align=center;verticalAlign=middle;whiteSpace=wrap;rounded=0;" vertex="1" parent="fTOtLGZc1tBef4jWmARQ-1">
          <mxGeometry x="530" y="250" width="260" height="30" as="geometry" />
        </mxCell>
        <mxCell id="fTOtLGZc1tBef4jWmARQ-20" value="Customer Update Cart&lt;span style=&quot;color: rgba(0 , 0 , 0 , 0) ; font-family: monospace ; font-size: 0px&quot;&gt;%3CmxGraphModel%3E%3Croot%3E%3CmxCell%20id%3D%220%22%2F%3E%3CmxCell%20id%3D%221%22%20parent%3D%220%22%2F%3E%3CmxCell%20id%3D%222%22%20value%3D%22SelfCheckoutStation%20Unblocked%22%20style%3D%22rounded%3D1%3BwhiteSpace%3Dwrap%3Bhtml%3D1%3BarcSize%3D24%3Bshadow%3D0%3Bcomic%3D0%3BlabelBackgroundColor%3Dnone%3BfontFamily%3DVerdana%3BfontSize%3D12%3Balign%3Dcenter%3B%22%20vertex%3D%221%22%20parent%3D%221%22%3E%3CmxGeometry%20x%3D%22850%22%20y%3D%22270%22%20width%3D%22140%22%20height%3D%2260%22%20as%3D%22geometry%22%2F%3E%3C%2FmxCell%3E%3C%2Froot%3E%3C%2FmxGraphModel%3E&lt;/span&gt;" style="rounded=1;whiteSpace=wrap;html=1;arcSize=24;shadow=0;comic=0;labelBackgroundColor=none;fontFamily=Verdana;fontSize=12;align=center;" vertex="1" parent="fTOtLGZc1tBef4jWmARQ-1">
          <mxGeometry x="470" y="670" width="120" height="60" as="geometry" />
        </mxCell>
        <mxCell id="fTOtLGZc1tBef4jWmARQ-21" value="&lt;div&gt;&lt;span style=&quot;font-size: 13px&quot;&gt;useOwnBags() [blocked] / ownBagBlock()&lt;/span&gt;&lt;/div&gt;" style="text;html=1;strokeColor=none;fillColor=none;align=center;verticalAlign=middle;whiteSpace=wrap;rounded=0;" vertex="1" parent="fTOtLGZc1tBef4jWmARQ-1">
          <mxGeometry x="270" y="480" width="270" height="30" as="geometry" />
        </mxCell>
        <mxCell id="fTOtLGZc1tBef4jWmARQ-22" value="removeFromCart() [! currentItemRemoved]/&lt;br&gt;weightDiscBlock()&lt;br&gt;&amp;nbsp;" style="text;html=1;strokeColor=none;fillColor=none;align=center;verticalAlign=middle;whiteSpace=wrap;rounded=0;" vertex="1" parent="fTOtLGZc1tBef4jWmARQ-1">
          <mxGeometry x="280" y="520" width="250" height="40" as="geometry" />
        </mxCell>
        <mxCell id="fTOtLGZc1tBef4jWmARQ-23" value="&lt;span style=&quot;font-family: , , &amp;#34;sf mono&amp;#34; , &amp;#34;menlo&amp;#34; , &amp;#34;consolas&amp;#34; , &amp;#34;liberation mono&amp;#34; , monospace ; background-color: rgb(255 , 255 , 255)&quot;&gt;notifyWeightDiscBlock()&lt;/span&gt;" style="text;html=1;align=center;verticalAlign=middle;resizable=0;points=[];autosize=1;strokeColor=none;fillColor=none;" vertex="1" parent="fTOtLGZc1tBef4jWmARQ-1">
          <mxGeometry x="620" y="580" width="140" height="20" as="geometry" />
        </mxCell>
        <mxCell id="fTOtLGZc1tBef4jWmARQ-24" value="&lt;span style=&quot;font-family: , , &amp;#34;sf mono&amp;#34; , &amp;#34;menlo&amp;#34; , &amp;#34;consolas&amp;#34; , &amp;#34;liberation mono&amp;#34; , monospace ; background-color: rgb(255 , 255 , 255)&quot;&gt;&lt;font color=&quot;#06040a&quot;&gt;notifyOwnBagBlock()&lt;/font&gt;&lt;/span&gt;" style="text;html=1;align=center;verticalAlign=middle;resizable=0;points=[];autosize=1;strokeColor=none;fillColor=none;" vertex="1" parent="fTOtLGZc1tBef4jWmARQ-1">
          <mxGeometry x="640" y="600" width="130" height="20" as="geometry" />
        </mxCell>
      </root>
    </mxGraphModel>
  </diagram>
</mxfile>
